<?xml version="1.0" standalone="no"?>
<!DOCTYPE svg PUBLIC "-//W3C//DTD SVG 20010904//EN"
 "http://www.w3.org/TR/2001/REC-SVG-20010904/DTD/svg10.dtd">
<svg version="1.0" xmlns="http://www.w3.org/2000/svg"
 width="202.000000pt" height="136.000000pt" viewBox="0 0 202.000000 136.000000"
 preserveAspectRatio="xMidYMid meet">

<g transform="translate(0.000000,136.000000) scale(0.100000,-0.100000)"
fill="#000000" stroke="none">
<path d="M700 1042 l-33 -28 5 -79 c5 -78 20 -127 72 -234 11 -25 73 -99 137
-166 118 -123 145 -158 134 -175 -4 -6 19 -10 59 -10 63 0 66 1 66 24 0 24 -7
32 -208 222 -41 38 -88 89 -106 114 -71 98 -117 256 -94 321 14 41 7 43 -32
11z"/>
<path d="M800 1061 c-69 -19 -11 -231 96 -350 26 -29 100 -97 163 -151 147
-123 191 -167 191 -191 0 -17 8 -19 65 -19 57 0 65 2 65 19 0 32 -45 76 -207
202 -221 173 -293 254 -293 326 0 45 13 57 54 49 35 -7 46 -19 26 -31 -36 -22
37 -141 125 -202 263 -185 366 -269 393 -324 23 -46 23 -46 78 -48 64 -2 74
10 50 61 -21 43 -85 107 -163 161 -158 110 -340 243 -355 260 -10 11 -18 33
-18 50 0 26 3 29 23 23 12 -3 47 -9 78 -12 52 -6 58 -5 92 26 20 18 37 36 37
41 0 14 -63 10 -84 -6 -11 -8 -31 -15 -45 -15 -24 0 -24 1 -5 15 18 13 17 14
-19 15 -21 0 -48 -5 -60 -11 -18 -10 -24 -8 -42 15 -26 33 -54 37 -31 4 9 -12
16 -26 16 -30 0 -17 -16 -6 -39 27 -40 60 -55 72 -104 89 -52 17 -50 17 -87 7z"/>
<path d="M625 980 c-4 -6 -35 -29 -70 -51 -70 -44 -154 -134 -133 -142 8 -3
-9 -26 -44 -61 -42 -40 -58 -63 -58 -83 l0 -26 26 24 27 24 -13 -25 c-7 -14
-19 -32 -27 -42 -9 -10 -13 -31 -11 -55 l3 -38 24 40 c14 22 36 61 50 88 38
72 43 56 9 -30 -16 -43 -35 -101 -42 -130 -7 -29 -21 -63 -30 -77 -9 -14 -16
-28 -16 -31 0 -3 26 -5 59 -5 83 0 86 6 87 159 0 93 5 141 19 186 10 33 21 63
24 67 3 4 6 -41 6 -100 0 -87 5 -120 24 -175 15 -46 21 -81 18 -103 l-6 -35
62 3 c56 3 62 5 65 26 2 13 -18 68 -46 125 -27 56 -55 126 -62 156 -14 58 -9
169 9 211 10 22 11 21 7 -15 -9 -98 35 -221 128 -359 36 -54 66 -109 66 -122
0 -23 3 -24 65 -24 58 0 65 2 65 20 0 10 -33 59 -73 107 -110 133 -125 155
-154 224 -38 94 -51 156 -43 222 6 53 0 71 -15 47z"/>
<path d="M530 945 c0 -13 4 -14 20 -5 11 6 20 13 20 15 0 3 -9 5 -20 5 -11 0
-20 -7 -20 -15z"/>
<path d="M1346 938 c-8 -13 -20 -35 -27 -50 -13 -30 -14 -31 -78 -28 -62 2
-50 -17 39 -65 41 -22 103 -67 139 -101 36 -34 93 -79 126 -101 93 -62 124
-102 185 -233 8 -17 107 -27 121 -13 5 5 4 24 -2 43 -6 19 -10 67 -10 107 l1
71 -55 68 c-50 60 -57 65 -62 46 -7 -29 -20 -28 -100 9 -38 18 -95 42 -128 53
-129 47 -138 62 -96 152 l30 64 -34 0 c-25 0 -39 -6 -49 -22z"/>
<path d="M1462 913 c-11 -27 -23 -58 -27 -70 -3 -13 -12 -23 -18 -23 -21 -1
35 -27 117 -54 43 -15 87 -24 97 -21 33 11 33 42 -1 85 -36 46 -50 50 -50 16
0 -35 -26 -56 -67 -56 l-36 0 21 23 c23 24 48 108 38 132 -3 8 -16 15 -29 15
-20 0 -29 -10 -45 -47z"/>
</g>
</svg>
